<?xml version="1.0" encoding="utf-8"?>
<!-- Generator: Adobe Illustrator 26.0.0, SVG Export Plug-In . SVG Version: 6.00 Build 0)  -->
<svg version="1.1" id="Layer_1" xmlns="http://www.w3.org/2000/svg" xmlns:xlink="http://www.w3.org/1999/xlink" x="0px" y="0px"
	 viewBox="0 0 225 225" style="enable-background:new 0 0 225 225;" xml:space="preserve">
<g>
	<path id="Path_2646" d="M20,149.4c-0.1-10.7,3.5-21.2,10.1-29.6C36.8,111,46.5,105,57.4,103c2.6-0.5,5.2-0.8,7.9-0.9
		c0.7,0,0.9,0.2,1,0.9c0.2,4.4,0.5,8.9,0.7,13.3c0.1,2.2,0.3,4.3,0.4,6.5c0,0.6-0.2,0.8-0.7,0.9c-6.5,0.8-12.5,3.8-16.9,8.7
		c-4,4.3-6.5,9.7-7.2,15.6c-0.8,5.8,0.1,11.7,2.6,17c0.1,0.2,0.2,0.5,0.4,0.7c0.5,0.6,0.2,0.9-0.3,1.3c-5.4,3.4-10.8,6.9-16.2,10.3
		c-0.8,0.5-0.8,0.5-1.3-0.3c-3.4-5.6-5.7-11.8-6.8-18.2C20.2,155.6,19.9,152.5,20,149.4"/>
	<path id="Path_2647" d="M155,199.5c-15.8-0.1-30.5-8.5-38.6-22.1c-0.5-0.8-0.5-0.8,0.3-1.3c5.5-3.6,11-7.2,16.5-10.8
		c0.5-0.4,0.8-0.3,1.2,0.2c3.7,5.2,9.3,8.8,15.5,10.2c10.7,2.5,21.8-1.3,28.8-9.7c0.9-1,1.7-2.1,2.5-3.2c0.2-0.4,0.6-0.5,1-0.3
		c0,0,0.1,0,0.1,0.1c5.9,3.1,11.8,6.1,17.6,9.2c0.6,0.3,0.4,0.6,0.2,1c-7.2,13.1-19.7,22.4-34.2,25.7
		C162.3,199.1,158.6,199.5,155,199.5"/>
	<path id="Path_2648" d="M110,25.5h3.4c17,0.6,32.5,9.6,41.4,24c3.6,5.7,5.8,12.2,6.5,18.9c1.1,9.4-0.8,18.8-5.3,27.1
		c-0.3,0.6-0.6,0.7-1.2,0.4c-5.9-3-11.8-5.9-17.7-8.9c-0.5-0.3-0.7-0.5-0.4-1.1c5.5-13.1,0.3-28.3-12.2-35.1
		c-4.1-2.4-8.7-3.8-13.4-4.1c-0.7,0-0.8-0.3-0.9-0.9c-0.3-6.5-0.5-13-0.8-19.5C109.3,25.8,109.3,25.4,110,25.5"/>
	<path id="Path_2649" d="M132.2,162.5c-0.1,0.3-0.3,0.4-0.6,0.6l-10.4,6.7c-2,1.3-4.1,2.7-6.1,4c-0.6,0.4-0.8,0.4-1.3-0.2
		c-3.1-4.6-7.7-7.9-12.9-9.5c-6.7-2-13.8-1.3-20,1.8c-4.9,2.4-9.3,5.8-12.8,10c-0.9,1-0.6,1-1.8,0.3l-13.4-8.4
		c-0.8-0.5-0.8-0.5-0.2-1.2c6.5-8.3,14.8-14.9,24.4-19.3c6.1-2.7,12.6-4.1,19.3-4.3c14.5-0.5,28.1,6.8,35.7,19.2
		C132.1,162.2,132.1,162.4,132.2,162.5"/>
	<path id="Path_2650" d="M179.3,147.4c-0.1,2.8-0.2,5.6-0.3,8.4c0,0.5-0.2,0.7-0.7,0.6c-9.7-1.3-19.1-4.8-27.3-10.2
		c-9.1-5.8-16-14.6-19.3-24.9c-3.3-10.3-2.4-21.5,2.7-31.1c0.3-0.5,0.5-0.7,1.1-0.4c5.9,3,11.8,6,17.8,8.9c0.4,0.2,0.7,0.3,0.4,0.9
		c-4,7.9-3.3,17.3,1.8,24.5c3.7,5.4,8.9,9.5,15,11.8c2.7,1.2,5.5,2,8.3,2.4c0.6,0.1,0.8,0.3,0.8,1
		C179.5,142,179.4,144.7,179.3,147.4"/>
	<path id="Path_2651" d="M80.6,98.7c1.2-0.5,2.4-1.3,3.3-2.3c4.9-4.3,8.1-10.2,9-16.6c0.9-6.2,0.2-12.6-2-18.4
		c-0.5-1.4-0.7-1.1,0.8-1.9l13.9-7.3c0.8-0.4,0.8-0.4,1.2,0.4c1.9,4.6,3.2,9.3,4,14.2c0.7,4,0.9,8.1,0.7,12.2
		c-0.2,5.2-1.1,10.4-2.8,15.4c-2,6-5.2,11.4-9.4,16.1c-5.9,6.4-13.7,10.8-22.3,12.4c-2,0.4-4,0.6-6,0.7c-0.5,0-0.6-0.2-0.6-0.6
		c-0.1-1.4-0.2-2.8-0.3-4.3c-0.2-3.7-0.4-7.3-0.6-11c-0.1-1.6-0.2-3.2-0.3-4.8c-0.1-0.6,0.3-0.7,0.8-0.7c2.2-0.1,4.3-0.5,6.3-1.3
		c0.8-0.3,1.6-0.7,2.5-1c0.3-0.1,0.5-0.2,0.6-0.5C79.9,99.3,80.3,99.1,80.6,98.7"/>
	<path id="Path_2652" d="M80.6,98.7c-0.3,0.4-0.8,0.6-1.3,0.7c-3-1.9-6.2-3.6-9.3-5.4c-2.4-1.4-4.9-2.9-7.3-4.3
		c-0.2-0.1-0.4-0.3-0.5-0.5c1-0.3,2-0.7,3-1c0.6-0.2,0.7-0.4,0.5-1c-1.8-5.7-2.5-11.7-2-17.6c2.2-21.1,17.7-38.4,38.5-42.7
		c0.8-0.2,1.7-0.3,2.5-0.5c0.4-0.1,0.5,0,0.5,0.4c0.1,1.5,0.1,2.9,0.2,4.4c0.2,5.1,0.4,10.2,0.6,15.3c0,0.5-0.2,0.7-0.7,0.8
		c-5.2,1-10,3.4-14,6.9c-6.3,5.4-9.8,13.4-9.4,21.7c0.1,1.9,0.3,3.9,0.8,5.8c0.1,0.6,0.3,0.7,0.9,0.5c1.3-0.5,2.7-0.9,4.1-1.3
		c0.2-0.1,0.4-0.3,0.6,0c0.2,0.2,0,0.4-0.1,0.5c-2.3,5.5-4.7,11-7,16.5C81,97.9,80.8,98.3,80.6,98.7"/>
	<path id="Path_2653" d="M105.6,168.1c0.3,0,0.7,0,1,0c0.7-0.1,0.8,0.2,0.7,0.8c-0.4,4.2-0.8,8.5-1.1,12.7c-0.2,2.1-0.4,4.2-0.6,6.2
		c0,0.2,0,0.3-0.1,0.5c-0.1,0.4-0.2,0.4-0.5,0.1c-0.8-0.8-1.6-1.6-2.3-2.4c-0.4-0.5-0.7-0.4-1.1,0c-3.5,3.5-7.6,6.4-12,8.6
		c-4.8,2.4-10,3.9-15.3,4.4c-8.8,0.9-17.7-0.6-25.7-4.2c-5-2.3-9.7-5.4-13.7-9.2c-1.4-1.3-2.8-2.8-4.1-4.2c-0.4-0.4-0.3-0.7,0.2-1
		c5.5-3.5,11.1-7.1,16.6-10.6c0.4-0.3,0.7-0.1,0.9,0.2c2.4,2.6,5.1,4.8,8.2,6.6c3.3,1.9,7,3,10.8,3.4c4.5,0.5,9.1,0,13.3-1.7
		c3.1-1.3,6-3.1,8.5-5.4c0.4-0.4,0.3-0.7,0-1c-0.8-0.8-1.5-1.6-2.3-2.4c-0.1-0.1-0.3-0.3-0.2-0.5c0.1-0.2,0.3-0.2,0.5-0.2l9.5-0.4
		L105.6,168.1"/>
	<path id="Path_2654" d="M165.8,125.2c-0.3-0.2-0.5-0.4-0.7-0.7l-12.5-14.7c-0.2-0.3-0.5-0.5,0-0.8c5.6-3.6,11.3-7.1,16.9-10.8
		c0.1,0,0.2-0.1,0.3-0.2c-0.2,1.6-0.4,3.3-0.7,4.9c-0.1,0.6,0,0.8,0.6,1c7.5,1.8,14.3,5.4,20,10.6c7.4,6.9,12.4,15.9,14.3,25.8
		c1.7,9,1.1,18.4-1.8,27.1c-0.2,0.5-0.4,0.5-0.8,0.3c-5.8-3-11.6-6.1-17.4-9.1c-0.5-0.3-0.7-0.5-0.5-1.1c1.3-3.9,1.8-7.9,1.5-12
		c-0.7-10.8-7.6-20.2-17.7-23.9c-0.9-0.3-0.9-0.3-1,0.6C166.2,123.1,166,124.2,165.8,125.2"/>
</g>
</svg>
